<svg width="26" height="25" viewBox="0 0 26 25" fill="none" xmlns="http://www.w3.org/2000/svg">
<path d="M25.1528 12.5764C25.1528 5.63061 19.5222 -3.02408e-05 12.5764 -3.02408e-05C5.63064 -3.02408e-05 0 5.63061 0 12.5764C0 18.8536 4.59901 24.0565 10.6113 25V16.2117H7.41811V12.5764H10.6113V9.80564C10.6113 6.65367 12.4889 4.91263 15.3616 4.91263C16.7376 4.91263 18.1768 5.15826 18.1768 5.15826V8.25324H16.591C15.0287 8.25324 14.5415 9.22268 14.5415 10.2172V12.5764H18.0295L17.4719 16.2117H14.5415V25C20.5538 24.0565 25.1528 18.8536 25.1528 12.5764Z" fill="white"/>
</svg>
