<svg width="25" height="25" viewBox="0 0 25 25" fill="none" xmlns="http://www.w3.org/2000/svg">
<g clip-path="url(#clip0_80_6)">
<path d="M7.32302 0.0875593C5.99302 0.150309 5.08477 0.362559 4.29077 0.674559C3.46902 0.994809 2.77252 1.42456 2.07952 2.12006C1.38652 2.81556 0.95977 3.51256 0.64177 4.33556C0.33402 5.13131 0.12552 6.04031 0.0667703 7.37106C0.00802028 8.70181 -0.00497973 9.12956 0.00152027 12.5241C0.00802027 15.9186 0.0230203 16.3441 0.0875203 17.6776C0.15102 19.0073 0.36252 19.9153 0.67452 20.7096C0.99527 21.5313 1.42452 22.2276 2.12027 22.9208C2.81602 23.6141 3.51252 24.0398 4.33752 24.3583C5.13252 24.6656 6.04177 24.8751 7.37227 24.9333C8.70277 24.9916 9.13102 25.0051 12.5245 24.9986C15.918 24.9921 16.3453 24.9771 17.6785 24.9138C19.0118 24.8506 19.915 24.6376 20.7095 24.3271C21.5313 24.0056 22.228 23.5771 22.9208 22.8811C23.6135 22.1851 24.04 21.4876 24.3578 20.6641C24.6658 19.8691 24.875 18.9598 24.9328 17.6303C24.991 16.2961 25.0048 15.8701 24.9983 12.4761C24.9918 9.08206 24.9765 8.65656 24.9133 7.32356C24.85 5.99056 24.6383 5.08531 24.3265 4.29056C24.0053 3.46881 23.5765 2.77306 22.881 2.07931C22.1855 1.38556 21.4875 0.959309 20.6643 0.642309C19.8688 0.334559 18.96 0.124809 17.6295 0.0673093C16.299 0.00980935 15.8708 -0.00494066 12.476 0.00155934C9.08127 0.00805934 8.65627 0.0225593 7.32302 0.0875593ZM7.46902 22.6846C6.25027 22.6316 5.58852 22.4291 5.14752 22.2596C4.56352 22.0346 4.14752 21.7626 3.70802 21.3273C3.26852 20.8921 2.99852 20.4746 2.77052 19.8918C2.59927 19.4508 2.39302 18.7898 2.33602 17.5711C2.27402 16.2538 2.26102 15.8583 2.25377 12.5211C2.24652 9.18381 2.25927 8.78881 2.31702 7.47106C2.36902 6.25331 2.57277 5.59081 2.74202 5.15006C2.96702 4.56531 3.23802 4.15006 3.67427 3.71081C4.11052 3.27156 4.52677 3.00106 5.11002 2.77306C5.55052 2.60106 6.21152 2.39656 7.42977 2.33856C8.74802 2.27606 9.14302 2.26356 12.4798 2.25631C15.8165 2.24906 16.2125 2.26156 17.5313 2.31956C18.749 2.37256 19.4118 2.57431 19.852 2.74456C20.4363 2.96956 20.852 3.23981 21.2913 3.67681C21.7305 4.11381 22.0013 4.52856 22.2293 5.11306C22.4015 5.55231 22.606 6.21306 22.6635 7.43206C22.7263 8.75031 22.7405 9.14556 22.7465 12.4821C22.7525 15.8186 22.7408 16.2148 22.683 17.5321C22.6298 18.7508 22.4278 19.4128 22.258 19.8543C22.033 20.4381 21.7618 20.8543 21.3253 21.2933C20.8888 21.7323 20.473 22.0028 19.8895 22.2308C19.4495 22.4026 18.7878 22.6076 17.5705 22.6656C16.2523 22.7276 15.8573 22.7406 12.5193 22.7478C9.18127 22.7551 8.78752 22.7416 7.46927 22.6846M17.6593 5.81931C17.6598 6.116 17.7482 6.40588 17.9135 6.65229C18.0787 6.8987 18.3134 7.09057 18.5877 7.20363C18.862 7.31669 19.1637 7.34586 19.4545 7.28746C19.7454 7.22905 20.0125 7.0857 20.2219 6.87552C20.4313 6.66534 20.5737 6.39778 20.631 6.10668C20.6883 5.81558 20.658 5.51402 20.544 5.24013C20.4299 4.96624 20.2372 4.73232 19.9902 4.56797C19.7432 4.40362 19.453 4.31622 19.1563 4.31681C18.7585 4.3176 18.3774 4.47633 18.0967 4.75809C17.8159 5.03985 17.6586 5.42157 17.6593 5.81931ZM6.08177 12.5126C6.08877 16.0576 8.96777 18.9248 12.512 18.9181C16.0563 18.9113 18.9255 16.0326 18.9188 12.4876C18.912 8.94256 16.0323 6.07456 12.4875 6.08156C8.94277 6.08856 6.07502 8.96806 6.08177 12.5126ZM8.33327 12.5081C8.33164 11.684 8.57442 10.8779 9.03091 10.1918C9.48741 9.50563 10.1371 8.97028 10.8979 8.65341C11.6586 8.33653 12.4962 8.25236 13.3048 8.41153C14.1134 8.5707 14.8566 8.96608 15.4405 9.54765C16.0244 10.1292 16.4227 10.8709 16.5851 11.6788C16.7475 12.4868 16.6666 13.3247 16.3527 14.0867C16.0389 14.8487 15.5061 15.5005 14.8218 15.9598C14.1375 16.419 13.3324 16.6649 12.5083 16.6666C11.9611 16.6677 11.419 16.5611 10.913 16.3527C10.407 16.1443 9.94707 15.8383 9.55937 15.4521C9.17167 15.066 8.86384 14.6072 8.65347 14.1021C8.44309 13.5969 8.33429 13.0553 8.33327 12.5081Z" fill="white"/>
</g>
<defs>
<clipPath id="clip0_80_6">
<rect width="25" height="25" fill="white"/>
</clipPath>
</defs>
</svg>
